<svg width="118" height="51" viewBox="0 0 118 51" fill="none" xmlns="http://www.w3.org/2000/svg">
<path d="M61.5849 7.04214H62.8505V8.93251H59.4719V4.1377H61.5849V7.04374V7.04214Z" fill="#002F71"/>
<path d="M67.8399 6.53438C67.8399 8.28217 67.0774 9.06876 65.3872 9.06876C63.6971 9.06876 62.9346 8.28057 62.9346 6.53438C62.9346 4.78819 63.6987 4 65.3889 4C67.079 4 67.8415 4.78819 67.8415 6.53438H67.8399ZM65.1405 6.53438C65.1405 7.09669 65.203 7.28092 65.3889 7.28092C65.5747 7.28092 65.6372 7.09508 65.6372 6.53438C65.6372 5.97368 65.5747 5.78784 65.3889 5.78784C65.203 5.78784 65.1405 5.97368 65.1405 6.53438Z" fill="#002F71"/>
<path d="M71.8825 8.93251H68.5487L67.791 4.1377H70.0001L70.1523 7.19433H70.3109L70.4631 4.1377H72.6386L71.8809 8.93411L71.8825 8.93251Z" fill="#002F71"/>
<path d="M76.5395 5.66441H74.9343V6.02807H76.4258V7.04214H74.9343V7.4058H76.5395V8.93411H72.8212V4.1377H76.5395V5.66601V5.66441Z" fill="#002F71"/>
<path d="M81.4622 6.02807H80.6596V8.93251H78.5466V6.02807H77.744V4.1377H81.4622V6.02967V6.02807Z" fill="#002F71"/>
<path d="M86.3793 8.93251H84.2662V7.4106H83.8369V8.93251H81.7238V4.1377H83.8369V5.65961H84.2662V4.1377H86.3793V8.93411V8.93251Z" fill="#002F71"/>
<path d="M90.5151 5.66441H88.9099V6.02807H90.4014V7.04214H88.9099V7.4058H90.5151V8.93411H86.7969V4.1377H90.5151V5.66601V5.66441Z" fill="#002F71"/>
<path d="M98.5012 8.93216H95.6144L95.4622 6.0133H95.3613L95.2091 8.93216H92.2774L91.6494 4.13574H93.8025L93.9547 7.19238H94.1133L94.2655 4.13574H96.5532L96.7054 7.19238H96.864L97.0161 4.13574H99.1292L98.5012 8.93216Z" fill="#002F71"/>
<path d="M103.99 6.53426C103.99 8.28205 103.228 9.06864 101.537 9.06864C99.8473 9.06864 99.0847 8.28045 99.0847 6.53426C99.0847 4.78807 99.8473 3.99988 101.537 3.99988C103.228 3.99988 103.99 4.78807 103.99 6.53426ZM101.289 6.53426C101.289 7.09656 101.352 7.28079 101.537 7.28079C101.723 7.28079 101.786 7.09496 101.786 6.53426C101.786 5.97355 101.723 5.78772 101.537 5.78772C101.352 5.78772 101.289 5.97355 101.289 6.53426Z" fill="#002F71"/>
<path d="M107.082 4.1377C108.484 4.1377 108.992 4.60388 108.992 5.88549C108.992 6.57115 108.845 6.96845 108.5 7.22797L109.11 8.93411H106.872L106.562 7.67333H106.376V8.93411H104.268V4.1377H107.081H107.082ZM106.376 5.38406V6.42537H106.466C106.747 6.42537 106.85 6.28759 106.85 5.90471C106.85 5.52183 106.749 5.38406 106.466 5.38406H106.376Z" fill="#002F71"/>
<path d="M111.411 7.04214H112.676V8.93251H109.298V4.1377H111.411V7.04374V7.04214Z" fill="#002F71"/>
<path d="M115.209 4.1377C117.079 4.1377 117.729 4.75447 117.729 6.5359C117.729 8.31734 117.079 8.93411 115.209 8.93411H112.938V4.1377H115.209ZM115.051 5.78777V7.28084H115.14C115.44 7.28084 115.525 7.11583 115.525 6.5343C115.525 5.95277 115.44 5.78777 115.14 5.78777H115.051Z" fill="#002F71"/>
<path d="M69.8259 10.6305L69.6225 16.6397C68.5395 16.5163 67.4069 16.4346 66.6459 16.4346C64.9878 16.4346 64.3631 16.8239 64.3631 17.9116C64.3631 18.8344 64.786 19.2653 65.7328 19.2653V17.7675H69.9781V24.741C68.6596 25.172 67.221 25.377 65.5646 25.377C60.0504 25.3786 57.7676 23.1422 57.7676 17.7899C57.7676 12.4376 60.0841 10.2012 65.6991 10.2012C67.0176 10.2012 68.2864 10.3245 69.8259 10.6321V10.6305Z" fill="#002F71"/>
<path d="M76.9319 22.916L76.7797 24.9666H70.2852L72.4671 10.6094H83.1733L85.3553 24.9666H78.7598L78.6076 22.916H76.9335H76.9319ZM78.0485 15.2039H77.4894L77.2187 19.0392H78.3353L78.0485 15.2039Z" fill="#002F71"/>
<path d="M105.384 24.9687H99.6164V17.2982H99.1422L98.213 24.9687H92.9696L92.0389 17.2982H91.5647V24.9687H85.8984V10.6115H94.7271L95.1836 17.8109H95.6578L96.1144 10.6115H105.382V24.9687H105.384Z" fill="#002F71"/>
<path d="M117.769 15.1852H112.966V16.273H117.431V19.3088H112.966V20.3949H117.769V24.9687H106.64V10.6115H117.769V15.1852Z" fill="#002F71"/>
<path d="M61.1131 31.0418H62.3786V32.9322H59V28.1357H61.1131V31.0418Z" fill="#CE242B"/>
<path d="M67.3691 30.5343C67.3691 32.2821 66.6065 33.0686 64.9164 33.0686C63.2263 33.0686 62.4637 32.2804 62.4637 30.5343C62.4637 28.7881 63.2263 27.9999 64.9164 27.9999C66.6065 27.9999 67.3691 28.7881 67.3691 30.5343ZM64.6697 30.5343C64.6697 31.0966 64.7322 31.2808 64.918 31.2808C65.1039 31.2808 65.1663 31.095 65.1663 30.5343C65.1663 29.9736 65.1039 29.7877 64.918 29.7877C64.7322 29.7877 64.6697 29.9736 64.6697 30.5343Z" fill="#CE242B"/>
<path d="M71.4109 32.9322H68.0771L67.3193 28.1357H69.5285L69.6807 31.1924H69.8393L69.9915 28.1357H72.167L71.4093 32.9322H71.4109Z" fill="#CE242B"/>
<path d="M76.0677 29.6644H74.4625V30.0281H75.9539V31.0421H74.4625V31.4058H76.0677V32.9341H72.3494V28.1377H76.0677V29.666V29.6644Z" fill="#CE242B"/>
<path d="M80.9907 30.0277H80.1881V32.9322H78.0751V30.0277H77.2725V28.1357H80.9907V30.0277Z" fill="#CE242B"/>
<path d="M85.9074 32.9322H83.7943V31.4103H83.365V32.9322H81.252V28.1357H83.365V29.6577H83.7943V28.1357H85.9074V32.9322Z" fill="#CE242B"/>
<path d="M90.0436 29.6644H88.4384V30.0281H89.9298V31.0421H88.4384V31.4058H90.0436V32.9341H86.3253V28.1377H90.0436V29.666V29.6644Z" fill="#CE242B"/>
<path d="M98.0295 32.9322H95.1427L94.9905 30.0133H94.8896L94.7374 32.9322H91.8057L91.1777 28.1357H93.3308L93.483 31.1924H93.6416L93.7938 28.1357H96.0815L96.2337 31.1924H96.3923L96.5445 28.1357H98.6575L98.0295 32.9322Z" fill="#CE242B"/>
<path d="M103.519 30.5344C103.519 32.2822 102.756 33.0688 101.066 33.0688C99.3758 33.0688 98.6133 32.2806 98.6133 30.5344C98.6133 28.7882 99.3758 28 101.066 28C102.756 28 103.519 28.7882 103.519 30.5344ZM100.818 30.5344C100.818 31.0967 100.88 31.2809 101.066 31.2809C101.252 31.2809 101.314 31.0951 101.314 30.5344C101.314 29.9737 101.252 29.7878 101.066 29.7878C100.88 29.7878 100.818 29.9737 100.818 30.5344Z" fill="#CE242B"/>
<path d="M106.611 28.1357C108.012 28.1357 108.52 28.6019 108.52 29.8835C108.52 30.5692 108.373 30.9665 108.028 31.226L108.639 32.9322H106.401L106.09 31.6714H105.904V32.9322H103.796V28.1357H106.609H106.611ZM105.904 29.3837V30.425H105.994C106.276 30.425 106.378 30.2872 106.378 29.9044C106.378 29.5215 106.277 29.3837 105.994 29.3837H105.904Z" fill="#CE242B"/>
<path d="M110.939 31.0418H112.205V32.9322H108.826V28.1357H110.939V31.0418Z" fill="#CE242B"/>
<path d="M114.737 28.1357C116.607 28.1357 117.257 28.7525 117.257 30.534C117.257 32.3154 116.607 32.9322 114.737 32.9322H112.466V28.1357H114.737ZM114.579 29.7874V31.2805H114.669C114.968 31.2805 115.053 31.1155 115.053 30.534C115.053 29.9524 114.968 29.7874 114.669 29.7874H114.579Z" fill="#CE242B"/>
<path d="M77.3362 48.1291H71.9134V40.9185H71.4681L70.5934 48.1291H65.664L64.7893 40.9185H64.3439V48.1291H59.0156V34.6338H67.3172L67.7466 41.4007H68.1919L68.6213 34.6338H77.3362V48.1291Z" fill="#CE242B"/>
<path d="M100.616 34.6338C104.56 34.6338 105.992 35.9458 105.992 39.5504C105.992 41.4776 105.579 42.5958 104.608 43.3295L106.325 48.1291H100.028L99.1529 44.5823H98.6274V48.1291H92.6952V34.6338H100.616ZM98.629 38.1438V41.0739H98.8838C99.6784 41.0739 99.9651 40.6878 99.9651 39.608C99.9651 38.5283 99.6784 38.1422 98.8838 38.1422H98.629V38.1438Z" fill="#CE242B"/>
<path d="M117.313 38.9336H112.797V39.9541H116.996V42.8072H112.797V43.8293H117.313V48.1291H106.849V34.6338H117.313V38.9336Z" fill="#CE242B"/>
<path d="M85.0167 34.249C80.2619 34.249 78.1152 36.4662 78.1152 41.3828C78.1152 46.2993 80.2619 48.5165 85.0167 48.5165C89.7715 48.5165 91.9182 46.2993 91.9182 41.3828C91.9182 36.4662 89.7715 34.249 85.0167 34.249ZM87.7898 40.75C87.7433 40.9326 87.6921 41.0223 87.6184 41.2434C87.4726 41.3571 87.4694 41.4565 87.2883 41.5414C87.2355 41.74 87.1602 41.8121 87.0689 42.0268C87.0593 42.0364 87.0304 42.0572 86.992 42.0861C86.9183 42.1405 86.8109 42.2206 86.7533 42.2879C86.6427 42.4241 86.5819 42.5619 86.4505 42.7092C86.4361 42.7701 86.2871 42.7925 86.1942 43.0088C86.0756 43.1129 85.9282 43.161 85.8433 43.2523C85.7568 43.4638 85.6687 43.4654 85.5053 43.5567C85.4204 43.6592 85.2762 43.7954 85.2041 43.8435C85.1561 43.7554 85.0423 43.6544 84.8981 43.5295C84.7636 43.4013 84.6851 43.3228 84.5233 43.1963C84.4816 43.1866 84.3535 43.02 84.3455 42.8534C84.1965 42.7941 84.1035 42.666 83.9433 42.6147C83.8616 42.5298 83.7079 42.3536 83.7111 42.2831C83.5044 42.2174 83.4179 42.0444 83.3746 42.0204C83.3474 41.9931 83.3154 41.9627 83.2833 41.9323C83.2 41.8522 83.1055 41.7608 83.0286 41.6775C82.9293 41.5798 82.7899 41.4292 82.7899 41.261C82.6281 41.2482 82.5079 41.0271 82.4887 40.9326C82.3542 40.7724 82.4102 40.6186 82.3125 40.452C82.2372 40.3303 82.2708 40.2662 82.4246 40.0932C82.4887 39.9009 82.5512 39.7487 82.6874 39.6045C82.7835 39.6222 82.8588 39.4812 83.059 39.51C83.2192 39.4155 83.3154 39.4123 83.5284 39.486C83.6662 39.4748 83.7671 39.5501 83.8552 39.6494C84.0347 39.7103 84.1116 39.7439 84.1981 39.8368C84.3246 39.933 84.4207 39.9137 84.5313 40.1204C84.5858 40.1893 84.7363 40.3126 84.7492 40.3975C84.8725 40.4728 84.9718 40.5625 85.1433 40.5049C85.233 40.3671 85.3755 40.3319 85.4973 40.1765C85.6991 40.0964 85.7488 40.0291 85.909 39.8529C86.0035 39.7423 86.2246 39.643 86.356 39.6142C86.4569 39.5661 86.6652 39.5677 86.7773 39.5741C86.9375 39.6654 87.0641 39.619 87.1201 39.7471C87.3668 39.7055 87.3957 39.8785 87.4614 39.941C87.5863 39.9666 87.7241 40.0755 87.7193 40.3174C87.8154 40.4232 87.8603 40.5497 87.7898 40.758V40.75Z" fill="#CE242B"/>
<path d="M31.8382 41.3378C31.465 41.1152 31.63 40.3991 31.6764 39.9857C31.348 39.518 31.5563 39.0309 31.324 38.3277C31.2006 37.9977 31.5419 37.453 31.4153 36.8234C31.5034 36.3972 31.364 35.6491 31.6428 35.2694C31.449 34.6623 31.6716 34.0855 31.8334 33.5473C31.63 33.1323 31.8398 32.7703 31.9552 32.2881C31.332 32.8584 31.1958 32.2945 30.4044 32.4499C29.4272 32.6966 29.8181 32.7078 28.9242 32.671C28.0351 33.1163 27.9614 32.7142 27.2116 32.9593C26.6477 32.9689 26.4523 33.1484 25.5792 33.2477C24.9127 33.3646 24.6789 33.2621 24.2623 33.496C23.2082 33.5713 23.1169 33.3807 22.3752 33.7187C21.8401 33.5825 21.3451 33.693 21.0006 33.7571C20.959 34.1 21.3002 34.9346 21.0615 35.2822C21.4108 35.9599 21.0663 36.4902 21.2682 36.6648C21.5549 37.2575 21.5678 37.6692 21.3707 38.1434C21.7328 38.8067 21.5261 39.2072 21.5613 40.0707C21.9026 40.226 22.1429 41.0591 21.8048 41.4388C21.9602 41.9626 21.9506 42.5586 22.0067 42.8886C22.0564 43.0296 22.0916 43.201 22.1188 43.3788C22.6715 43.3996 22.9935 43.4285 23.33 43.3291C24.0765 43.8145 24.445 43.837 25.0922 43.688C25.5007 43.8145 25.9877 43.7008 26.5484 43.8194C27.1876 43.6479 27.5705 43.8882 28.0399 43.9507C28.7464 43.7601 28.8857 43.5566 29.6851 43.68C30.084 43.555 30.6351 43.2907 31.2038 43.225C31.316 43.233 31.4842 43.2122 31.6909 43.1369C31.6668 43.06 31.6396 42.9799 31.6076 42.895C31.5307 42.3407 31.8142 42.1148 31.8366 41.3346L31.8382 41.3378Z" fill="#002F71"/>
<path d="M41.5878 25.1306C40.8893 25.2508 40.3607 24.7045 40.1107 24.6452C39.4235 24.4145 39.212 24.2896 38.5472 23.9147C37.9208 23.5719 37.5411 23.6488 37.3409 23.4037C36.8779 22.9311 36.3957 22.7356 35.9519 22.3303C35.6331 22.4104 35.082 21.8705 34.7264 21.6447C34.8417 22.1205 34.6719 22.3303 34.4428 22.9054C34.0455 23.9387 34.2057 23.8666 34.1529 24.4546C33.9766 25.5568 33.8373 25.2284 33.5617 26.1928C33.4768 27.1299 33.3807 27.0562 33.3182 27.806C33.1212 28.5413 32.836 28.5333 32.703 29.1437C32.6966 29.9751 32.5012 30.1657 32.4692 30.7377C32.2192 31.465 32.3682 31.9424 32.0703 32.2387C32.4692 32.3813 33.0635 32.3797 33.5249 32.1058C33.8949 32.3669 34.4044 32.2147 35.0644 32.2596C35.4825 32.4278 35.9776 32.4278 36.3765 32.3653C37.2576 32.5784 37.4162 32.58 38.1915 32.4182C38.6049 32.5784 39.2344 32.4086 39.7038 32.4694C40.2517 32.3493 40.7692 32.9132 41.1472 32.6457C41.6663 32.6841 42.0572 32.6793 42.5842 32.6937C42.8117 32.6809 43.0072 32.6841 43.1914 32.6937C43.2571 32.5047 43.2939 32.2788 43.2507 31.9952C43.7473 31.67 43.8659 31.1366 43.8562 30.5278C43.9796 30.052 44.0357 29.6739 43.9363 28.9466C44.3641 28.3074 44.3513 27.9694 44.4794 27.5224C44.4442 27.3174 44.4426 27.0002 44.4426 26.6926C43.9812 26.5484 43.3676 26.3257 42.8758 26.1127C42.3952 25.9493 41.7464 25.584 41.5862 25.1258L41.5878 25.1306Z" fill="#002F71"/>
<path d="M30.7206 9.48695C30.4002 10.0156 30.2592 10.5234 29.8747 11.1018C29.8539 11.3229 29.3493 11.4734 29.1266 12.2712C28.763 12.6926 28.2759 12.9297 28.026 13.2949C27.829 14.0735 27.5198 14.1232 26.9975 14.5221C26.7508 14.9194 26.4 15.3839 26.1709 15.5826C26.549 15.5265 26.8261 15.8646 27.3195 16.5967C27.664 16.885 28.0132 16.9587 28.4474 17.5338C29.1186 17.7245 29.3365 17.8575 29.5992 18.2403C30.4338 18.6392 30.2817 18.6296 31.1644 18.9212C31.7443 19.5107 31.6273 19.2528 32.3258 19.9513C32.933 20.214 32.7391 20.2557 33.4632 20.709C34.0544 20.8756 34.6023 20.9189 34.6744 21.4428C34.8746 21.0198 34.9836 20.5985 35.3008 20.3502C35.533 19.767 35.8454 19.602 36.0921 19.0029C36.3517 18.471 36.5535 17.9776 37.079 17.4233C37.0822 17.0116 37.4346 16.664 37.6765 16.0904C37.7823 15.7332 37.904 15.0443 38.4567 14.937C38.5448 14.2145 39.1135 13.9469 39.1584 13.3254C39.1792 13.2821 39.2017 13.2405 39.2241 13.202C39.1856 13.1539 39.1472 13.1043 39.1071 13.0482C38.7435 12.6477 38.6025 12.3209 37.8447 12.2504C37.4683 11.8259 37.3545 11.5455 36.6352 11.2844C36.5599 10.9624 36.012 10.6516 35.5282 10.2767C34.8858 10.2719 34.6487 9.6087 34.2787 9.46132C33.6331 9.48054 33.1733 9.25305 32.4892 9.1281C32.297 8.76124 31.9109 8.74041 31.4479 8.66992C31.2156 8.89581 30.8808 9.22582 30.719 9.49015L30.7206 9.48695Z" fill="#002F71"/>
<path d="M20.4764 8.94082C21.0419 9.01612 21.2597 8.84951 22.0319 8.79183C22.301 8.44099 22.6615 8.33526 23.3744 8.26637C23.8694 8.22632 24.3532 8.03729 24.7906 7.99403C25.4794 7.97801 26.0578 8.01326 26.6088 7.79378C26.9357 7.78897 27.6902 8.06612 27.8536 7.84985C28.7507 8.25356 29.0727 8.2055 29.7039 8.37691C29.9554 8.31604 30.7725 8.32084 31.1457 8.61241C31.2499 8.63644 31.3524 8.65246 31.4517 8.66848C31.5687 8.55474 31.66 8.46663 31.6888 8.42657C31.9003 7.63678 32.1262 7.34362 32.2127 6.62752C32.799 6.24303 32.7654 5.897 33.2139 5.42761C33.3613 4.6202 33.4959 4.28217 33.5664 3.62215C33.709 2.85799 33.4895 2.44307 33.105 2.12106C33.0009 1.2768 32.4674 0.969216 32.022 0.938778C31.7625 0.749741 31.5751 0.165007 30.7356 0.430941C30.4809 0.0160201 30.0612 0.240302 29.4572 0C29.0663 0.0320402 28.3374 0.129763 28.009 0.347636C27.5669 0.512643 26.8459 0.966012 26.5688 1.40176C26.0962 2.09863 25.9568 2.35496 25.2936 2.73463C24.9476 3.33539 24.4686 3.52923 24.2219 4.05629C23.6531 4.34625 23.2606 4.08192 22.7945 3.88007C22.7064 3.59331 22.12 3.23766 21.8957 3.0246C21.4055 2.35976 21.0835 2.4703 20.5933 2.19956C20.2457 1.92401 19.9621 1.83911 19.3069 1.71896C18.9512 1.41618 18.562 1.20471 18.0894 1.31205C17.3108 1.15665 16.9808 1.21913 16.4681 1.62764C15.7584 1.62764 15.563 2.15791 15.2202 2.14349C14.8181 2.709 14.6771 3.27451 14.5489 3.97459C14.0987 4.65224 14.0122 4.89414 14.3374 5.28023C14.7636 5.81209 14.6418 6.3776 15.1913 6.86782C15.3051 7.18982 15.8321 7.89791 16.404 7.86427C16.4889 8.45061 17.0464 8.90397 17.4437 9.19554C17.7513 9.44866 18.1262 9.721 18.4562 9.9597C18.6228 9.86198 18.8199 9.73702 19.0698 9.57522C19.3838 9.34933 19.9877 9.18593 20.4796 8.94082H20.4764Z" fill="#CE242B"/>
<path d="M50.3285 22.5135C50.2756 22.4286 50.0481 21.8871 49.8303 21.2975C49.6861 20.7593 49.2471 20.567 48.6784 19.8477C48.1418 19.5257 47.8662 19.6523 47.4337 19.3255C46.8617 18.6238 46.442 18.486 45.7628 18.2473C45.4904 17.6994 45.5129 17.1692 45.8461 16.6053C46.0111 16.3233 46.6775 15.8619 46.7897 15.7498C46.9659 15.0577 47.3151 14.8847 47.3375 14.1606C47.8101 13.8786 47.3632 13.539 47.6708 13.1177C47.6644 12.4512 47.7653 12.1276 47.8678 11.4051C47.7445 11.1584 47.5074 10.4167 47.3536 9.87361C47.0187 9.56763 46.4965 9.02935 46.3859 8.73778C45.79 8.42219 45.0611 8.31325 44.7903 8.33248C43.8339 8.09698 43.3581 8.42379 43.0265 8.52952C42.8087 8.91561 42.0958 9.36257 41.785 9.57083C41.5799 10.1556 40.8446 10.5224 40.9135 10.8588C40.5723 11.1985 40.0324 11.8008 40.1093 11.9466C39.8145 12.5938 39.4621 12.8037 39.2266 13.201C39.6447 13.72 39.9635 13.7681 40.2438 14.2327C40.6892 14.7245 40.8382 15.0994 41.3556 15.5896C41.5671 16.1263 41.7049 16.421 42.0397 16.9689C42.0253 17.2156 42.3985 17.9013 42.8824 18.1416C43.1627 18.7792 43.3662 19.452 43.246 19.6507C43.3998 20.2434 43.4527 20.7288 43.9028 21.2126C43.9813 21.6997 44.1127 22.0601 44.4027 22.7025C44.4844 23.1863 44.2393 23.6942 44.5693 24.4086C44.55 24.7659 44.4011 25.2625 44.4171 25.9562C44.4443 26.1244 44.4427 26.4064 44.4427 26.6995C44.4555 26.7027 44.4683 26.7075 44.4812 26.7123C44.7631 26.6435 45.2469 27.1929 46.1585 27.1273C46.3475 27.1769 47.2062 27.249 47.6788 27.1401C48.4269 26.8725 48.8739 26.9014 49.4938 26.3711C49.5884 26.3471 50.0001 26.0908 49.944 25.3586C50.3717 24.9822 50.3894 24.5737 50.548 24.1363C50.7642 23.7246 50.6377 23.0277 50.3285 22.5183V22.5135Z" fill="#CE242B"/>
<path d="M42.1545 35.0894C41.8966 35.272 41.424 35.9481 41.0235 36.0394C40.9049 36.5136 40.4515 37.2617 40.49 37.454C39.7419 38.0804 39.4279 38.1813 39.029 38.5738C39.0626 39.1649 38.5932 39.4677 38.0037 39.7833C37.5775 40.0557 36.9431 40.1261 36.7381 40.4033C36.3023 40.8086 36.1261 41.3613 35.5622 41.5728C35.1505 41.6384 34.4472 41.7153 33.973 42.2584C33.6462 42.1959 33.1047 42.747 32.5681 42.6044C32.2396 42.8864 31.9385 43.0514 31.6934 43.1395C31.8824 43.7339 31.9128 44.168 32.1788 44.9049C32.0218 45.1324 32.065 45.8902 32.4976 46.2714C32.8052 46.8882 33.2249 47.2054 33.9987 47.4473C34.1524 47.7838 34.6106 47.9103 35.08 47.9904C35.5542 48.1426 36.038 47.7405 36.525 47.6908C36.8166 47.3913 37.4254 47.01 37.7425 46.9619C37.9877 46.4637 38.5532 46.3916 38.8095 45.6098C39.1523 45.2109 39.375 44.7111 39.5096 44.3715C39.3862 43.7787 39.4471 42.8656 39.6938 42.3834C39.979 41.938 39.8091 41.3517 40.2545 40.7958C40.2385 40.1245 40.6374 40.3536 41.4128 40.0797C41.4768 40.3648 42.1593 40.4417 42.6815 40.477C43.1205 40.5539 43.694 40.7205 44.1666 40.6468C44.3396 40.352 44.7578 40.6868 45.5748 40.3392C45.5796 40.1309 46.2829 40.1309 46.4094 39.7112C47.2793 39.4773 47.643 38.8077 48.0691 38.726C48.2485 37.941 48.3767 37.4524 48.5129 37.1881C48.5481 36.6706 48.6266 35.9913 48.1716 35.6325C48.0931 34.9484 47.5709 34.2355 47.5741 33.8687C47.1207 33.6636 46.2813 33.6845 45.751 33.2856C45.5732 33.1974 44.7145 32.8562 44.4742 32.861C43.9519 32.7937 43.5963 32.7232 43.1926 32.6992C43.0821 33.018 42.893 33.2279 42.8818 33.4121C42.5181 33.92 42.2842 34.4534 42.1561 35.0894H42.1545Z" fill="#CE242B"/>
<path d="M20.2074 42.7161C19.9735 42.3092 19.3055 42.2387 18.9242 42.1586C18.5349 42.0449 17.7836 41.7437 17.5465 41.2422C17.0482 41.2326 16.5052 41.0933 16.0085 40.6639C15.6048 40.2218 15.3149 40.0231 14.8278 39.4384C14.4514 39.0683 14.3665 39.0299 13.7225 38.5316C13.3059 38.2289 12.9519 37.9517 12.5722 37.3045C12.5081 37.0818 11.8321 36.7102 11.8177 36.2872C11.5886 35.6769 11.1464 35.1194 10.9302 34.9912C10.9237 34.9672 10.9157 34.9431 10.9077 34.9207C10.6963 34.9624 10.4832 35.0024 10.2413 35.0665C9.84079 35.5167 9.25125 35.3613 8.68574 35.7409C8.19072 35.9444 7.59157 36.3657 7.26956 36.5964C6.56948 37.1619 6.5791 37.6858 6.01999 38.0655C5.97674 38.6198 5.93028 39.1148 6.10971 39.448C6.03762 39.8982 6.22986 40.4909 6.63677 40.6896C6.821 41.4761 7.04368 41.6732 7.46981 41.8782C7.77259 42.4373 8.12824 42.5335 8.86677 42.7129C9.33776 42.982 9.74787 42.9628 10.5457 43.0798C10.8949 42.9708 11.6094 43.272 12.1285 43.1615C12.8574 43.2544 13.1361 43.2912 13.849 43.2319C14.61 43.5331 14.453 43.8471 14.799 44.3501C14.7606 44.6257 14.5106 45.2921 14.8695 45.5244C14.8278 46.2037 14.6068 46.3783 14.751 46.9006C15.0649 47.4789 15.105 47.7688 15.5039 48.4801C15.4014 48.501 15.8419 48.9976 16.3385 49.5407C16.6557 49.6704 17.1059 50.1318 17.2469 50.574C17.7804 50.6989 18.6086 50.7886 18.9562 51.0001C19.5346 50.9472 19.9399 50.6557 20.5182 50.2087C21.2743 50.143 21.6812 49.475 21.8447 49.2731C22.0689 48.8214 21.96 48.3776 22.306 47.8345C22.1138 47.3043 22.5992 46.758 22.4278 46.2309C22.3525 45.7519 22.4214 45.0871 22.242 44.4911C22.2067 44.2845 22.1875 43.8135 22.1218 43.3841C21.976 43.3793 21.8158 43.3745 21.6348 43.3713C21.1926 42.9083 21.0084 42.9981 20.2074 42.7193V42.7161Z" fill="#CE242B"/>
<path d="M8.6341 27.4597C8.35375 26.9182 8.4739 26.2374 8.63891 26.0163C8.53798 25.5677 8.48832 24.6802 8.58284 24.1227C8.43065 23.9978 8.9497 23.3185 8.87921 22.737C9.1868 22.3621 9.01538 21.5082 9.10349 21.4281C9.20442 20.5775 9.34059 20.1465 9.44312 19.7012C9.9093 19.1116 10.108 18.9915 10.0983 18.2529C10.6687 17.8492 10.5613 17.2965 10.752 17.1139C11.0836 16.3273 11.4248 16.26 12.0095 15.7923C12.2787 15.2235 12.4485 14.5571 12.7705 14.2864C12.7929 14.2463 12.8154 14.2063 12.8394 14.1678C12.6311 13.8779 12.2546 13.6087 11.8157 13.6103C11.3912 12.891 11.2294 12.6379 10.3322 12.3944C10.1015 12.3543 9.76512 12.5786 9.08267 12.6587C8.48992 13.1489 8.35375 13.3139 7.67931 13.479C7.65367 13.8843 7.18108 13.8987 7.06253 14.61C6.61877 14.7221 6.53227 15.3149 6.4826 16.0085C6.27915 16.6894 6.54989 17.1203 6.3176 17.806C6.53227 18.3939 6.46498 18.8521 6.8767 19.2093C6.94398 19.7829 6.73252 20.6239 6.7213 21.0452C7.06894 21.7165 6.38007 21.8495 6.05326 22.0321C5.4413 22.0785 5.05681 21.8543 4.3311 22.0449C3.91618 22.1619 3.6086 22.2708 3.14722 22.4678C2.90371 22.9388 2.45835 22.8075 2.03222 23.2656C1.75187 23.4915 1.56924 24.1019 1.05339 24.1692C0.487881 24.7635 0.369332 25.2025 0.14505 25.9234C-0.048793 26.4761 -0.0391809 26.7756 0.119418 27.189C0.524727 28.1005 0.316465 28.5058 0.724978 28.9896C1.16233 29.4798 1.78551 29.8275 2.14596 29.8595C2.53525 29.8195 3.08794 29.773 3.93701 29.8259C4.44965 29.8899 5.14813 30.0229 5.38843 30.0998C5.93151 29.7906 6.49382 29.64 6.75334 29.6929C7.38133 29.3837 7.96126 29.3709 8.22079 29.278C8.44987 29.1803 8.64371 29.1226 8.81513 29.0841C8.78629 28.9928 8.75586 28.9015 8.72542 28.815C8.78629 28.642 8.74144 28.1005 8.6325 27.4581L8.6341 27.4597Z" fill="#CE242B"/>
<path d="M16.0897 27.1014C15.4169 27.0725 15.0564 27.0293 14.5262 27.5595C13.9895 27.3304 13.4432 27.7886 13.134 27.9969C12.498 28.1875 12.0831 28.1459 11.5176 28.1571C10.7646 28.3926 10.3705 28.5303 9.97004 28.8556C9.56633 29.0238 9.26195 28.9885 8.81659 29.0862C8.95757 29.5236 9.10014 29.9962 9.33564 30.331C9.26355 30.8853 9.37889 31.5678 9.77619 32.0756C9.91877 32.585 10.1302 32.8205 10.1815 33.2723C10.284 34.0108 10.7246 34.3793 10.9072 34.9208C11.1395 34.8759 11.3718 34.8294 11.6393 34.7509C12.3554 34.5491 12.7383 34.5155 13.4897 34.4562C13.7844 34.2992 14.6014 34.4802 14.7424 34.2655C15.239 34.3633 16.0256 34.0044 16.5895 33.9371C16.809 34.0893 17.5395 34.1454 17.9128 34.0973C18.7298 33.9259 18.9701 33.8955 19.5453 33.7962C19.8016 33.6472 20.4376 33.6392 20.7852 33.6472C20.79 33.4213 20.6795 33.016 20.3719 32.5658C19.9265 31.4556 19.9009 31.7151 19.3818 31.0968C19.3546 30.291 18.9958 30.3855 18.7266 29.6582C18.5776 28.5592 18.4527 28.5384 17.9128 27.8975C17.3489 26.0825 17.3265 26.4445 16.0929 27.103L16.0897 27.1014Z" fill="#002F71"/>
<path d="M24.8709 14.7243C24.3375 14.3479 24.0299 14.1124 23.3987 13.7519C23.2481 13.7391 22.7178 13.2217 22.6105 12.6449C22.0626 12.5104 21.6765 12.1099 21.0934 12.0089C20.765 11.751 20.1402 11.2143 20.1178 10.9708C19.3648 10.8427 18.9787 10.2836 18.8153 10.2243C18.708 10.1442 18.5831 10.0545 18.4533 9.95996C18.0784 10.181 17.8654 10.2708 17.5882 10.3765C17.2294 10.495 16.4828 10.9067 16.1192 11.2288C15.8757 11.4194 15.3886 11.6949 15.1003 12.1163C14.4755 12.7298 14.2865 13.0198 13.7049 13.0807C13.5319 13.3722 13.1138 13.7215 12.8398 14.1652C12.9712 14.3479 13.0369 14.5385 13.0097 14.6763C13.4262 15.1729 13.5912 15.8025 13.8331 16.1245C14.1695 16.5667 14.4787 17.3164 14.6902 17.5647C15.0314 18.127 15.0282 18.7662 15.2605 19.2068C15.5921 19.7611 15.4816 20.184 15.9702 20.6261C15.9189 21.0859 16.2601 21.4768 16.3242 21.9911C16.4123 22.3771 16.659 23.1445 16.6767 23.3784C16.6815 24.0945 16.957 24.6184 17.09 25.1711C17.2998 25.3905 17.279 25.7638 17.3062 26.2252C17.4648 25.618 17.9326 25.6773 18.2258 25.3841C18.8762 24.6039 18.889 24.7017 19.2239 24.2002C19.6884 23.3592 19.8422 23.4072 20.1915 22.7488C20.5968 22.1449 20.4734 22.1737 21.0998 21.7203C21.6557 20.9401 21.8127 21.1164 22.2965 20.6454C22.5128 19.8299 22.5897 19.8091 23.3186 19.1042C23.8248 18.7005 23.6839 18.6172 24.2478 17.8707C24.6707 17.507 24.6515 17.5038 25.2875 16.8774C25.7809 16.4016 25.3596 15.7 26.1061 15.6823C25.8994 15.394 25.4445 15.0944 24.8725 14.7211L24.8709 14.7243Z" fill="#002F71"/>
</svg>
