<svg width="58" height="60" viewBox="0 0 58 60" fill="none" xmlns="http://www.w3.org/2000/svg">
<path d="M7.21666 58.0917H3.09167L2.4 59.85H0L4.25 49.3417H6.08333L10.35 59.85H7.89166L7.21666 58.0917ZM6.46666 56.1917L5.16667 52.8333L3.83333 56.1917H6.46666Z" fill="white"/>
<path d="M10.458 56.1755C10.458 53.9839 12.1413 52.3339 14.358 52.3339C16.2413 52.3339 17.833 53.5922 18.0247 55.2922H15.8413C15.6913 54.7505 15.0747 54.3589 14.358 54.3589C13.333 54.3589 12.5663 55.1255 12.5663 56.1755C12.5663 57.2255 13.333 57.9755 14.358 57.9755C15.0747 57.9755 15.708 57.5589 15.858 56.9839H18.0413C17.8747 58.7422 16.2663 60.0005 14.358 60.0005C12.1413 60.0005 10.458 58.3672 10.458 56.1755Z" fill="white"/>
<path d="M26.5333 52.4835V59.8501H24.375V58.8751C23.9167 59.5918 23.2167 60.0001 22.3417 60.0001C20.4167 60.0001 19.25 58.7251 19.25 56.6418V52.4835H21.4083V56.3668C21.4083 57.3418 21.9917 57.9751 22.8917 57.9751C23.7917 57.9751 24.375 57.3418 24.375 56.3668V52.4835H26.5333Z" fill="white"/>
<path d="M39.7999 55.2755V59.8505H37.6249V55.7672C37.6249 54.9005 37.1165 54.3589 36.3415 54.3589C35.6249 54.3589 34.9832 54.8255 34.9832 55.7672V59.8505H32.8249V55.7672C32.8249 54.9005 32.3165 54.3589 31.5249 54.3589C30.8249 54.3589 30.1915 54.8089 30.1915 55.7672V59.8505H28.0332V52.4839H30.1915V53.3672C30.7582 52.5589 31.6415 52.3339 32.3332 52.3339C33.3082 52.3339 33.9999 52.6505 34.4582 53.4172C34.8999 52.7839 35.7749 52.3339 36.7249 52.3339C38.5165 52.3339 39.7999 53.4922 39.7999 55.2755Z" fill="white"/>
<path d="M48.5495 56.6667H42.9662C43.1162 57.6251 43.8662 58.2417 44.8745 58.2417C45.7162 58.2417 46.2495 57.8834 46.3745 57.3751H48.4829C48.2412 58.9667 46.8162 60.0001 44.9329 60.0001C42.7162 60.0001 40.9912 58.3084 40.9912 56.1251C40.9912 53.9417 42.7079 52.3251 44.8912 52.3251C46.9245 52.3251 48.5912 53.8834 48.5912 55.9084C48.5912 56.0751 48.5745 56.4167 48.5412 56.6584L48.5495 56.6667ZM46.3495 55.3167C46.2912 54.5667 45.5995 54.0417 44.8079 54.0417C44.0162 54.0417 43.3412 54.4501 43.0829 55.3167H46.3579H46.3495Z" fill="white"/>
<path d="M57.0831 55.6755V59.8505H54.9248V55.9505C54.9248 54.9922 54.3248 54.3589 53.4415 54.3589C52.5581 54.3589 51.9581 54.9922 51.9581 55.9505V59.8505H49.7998V52.4839H51.9581V53.4422C52.4331 52.7339 53.1331 52.3339 53.9915 52.3339C55.9165 52.3339 57.0831 53.5922 57.0831 55.6839V55.6755Z" fill="white"/>
<path opacity="0.5" d="M17.283 7.81666H12.0663V0H0.833008V37.1833H6.08301L17.283 7.81666Z" fill="white"/>
<path opacity="0.5" d="M57.0833 0H29.2667L46.4333 45H57.0833V0Z" fill="white"/>
<path d="M17.2997 31.3833H32.2247L29.2497 23.575H20.283L24.7663 11.8167L20.258 0H12.0663V7.81666H17.283L6.08301 37.1833H0.833008V45H20.258V37.1833H15.0913L17.2997 31.3833Z" fill="white"/>
</svg>
