<svg width="40" height="40" viewBox="0 0 40 40" fill="none" xmlns="http://www.w3.org/2000/svg">
<path d="M29.5835 15.0369C29.353 14.2347 28.6763 13.6043 27.8153 13.3896C26.2545 13 20 13 20 13C20 13 13.7455 13 12.1864 13.3896C11.3253 13.6043 10.6487 14.2347 10.4182 15.0369C10 16.4894 10 19.5217 10 19.5217C10 19.5217 10 22.5541 10.4182 24.0066C10.6487 24.8088 11.3253 25.4392 12.1864 25.6539C13.7455 26.0435 20 26.0435 20 26.0435C20 26.0435 26.2545 26.0435 27.8136 25.6539C28.6747 25.4392 29.3513 24.8088 29.5818 24.0066C30 22.5541 30 19.5217 30 19.5217C30 19.5217 30 16.4894 29.5818 15.0369H29.5835ZM17.9997 22.3163V16.7271L23.1956 19.5217L17.9997 22.3163Z" fill="white"/>
</svg>
