<svg width="250" height="600" viewBox="0 0 250 600" fill="none" xmlns="http://www.w3.org/2000/svg">
<path d="M27.6381 600C13.9742 600 2.35852 590.253 0.00268562 576.801V571.99H0H4.7432V552.303H0V534.54H4.7432V514.853H0V497.091H4.7432V477.404H0V459.641H4.7432V439.954H0V422.192H4.7432V402.505H0V384.742H4.7432V365.056H0V347.293H4.7432V327.606H0V309.843H4.7432V290.157H0V272.394H4.7432V252.707H0V234.945H4.7432V215.258H0V197.495H4.7432V177.808H0V160.046H4.7432V140.359H0V122.596H4.7432V102.909H0V85.1466H4.7432V65.4596H0V47.6971H4.7432V28.0101H0C0 26.4225 0.00268562 23.1991 0.00268562 23.1991C2.35852 9.74726 13.9742 0 27.6381 0H221.932C237.413 0 250 12.605 250 28.0871V571.913C250 587.405 237.403 600 221.932 600H27.6381Z" fill="black"/>
</svg>
