<svg width="1062" height="600" viewBox="0 0 1062 600" fill="none" xmlns="http://www.w3.org/2000/svg">
<path d="M1034.36 600C1048.03 600 1059.64 590.257 1062 576.812V572.003H1062H1057.26V552.326H1062V534.572H1057.26V514.894H1062V497.14H1057.26V477.463H1062V459.709H1057.26V440.031H1062V422.277H1057.26V402.6H1062V384.846H1057.26V365.169H1062V347.415H1057.26V327.737H1062V309.983H1057.26V290.306H1062V272.552H1057.26V252.874H1062V235.12H1057.26V215.443H1062V197.689H1057.26V178.011H1062V160.257H1057.26V140.58H1062V122.826H1057.26V103.149H1062V85.3946H1057.26V65.7171H1062V47.9631H1057.26V28.2857H1062C1062 26.6988 1062 23.4769 1062 23.4769C1059.64 10.0316 1048.03 0.289031 1034.36 0.289031L28.0674 -0.000100938C12.5866 -0.000100938 -4.32832e-07 12.5989 -4.32832e-07 28.0735V571.637C-4.32832e-07 587.121 12.5962 599.711 28.0674 599.711L1034.36 600Z" fill="black"/>
</svg>
