<svg width="250" height="600" viewBox="0 0 250 600" fill="none" xmlns="http://www.w3.org/2000/svg">
<path d="M27.6346 599.577C13.9712 599.577 2.35577 589.837 0 576.394C0.269231 574.789 0.413462 573.164 0.413462 571.587H4.74039V551.914H0.413462V534.164H4.74039V514.49H0.413462V496.74H4.74039V477.067H0.413462V459.317H4.74039V439.644H0.413462V421.894H4.74039V402.221H0.413462V384.471H4.74039V364.798H0.413462V347.048H4.74039V327.375H0.413462V309.625H4.74039V289.952H0.413462V272.202H4.74039V252.529H0.413462V234.779H4.74039V215.106H0.413462V197.356H4.74039V177.683H0.413462V159.933H4.74039V140.26H0.413462V122.51H4.74039V102.837H0.413462V85.0865H4.74039V65.4135H0.413462V47.6635H4.74039V27.9904H0.413462C0.413462 26.4039 0.269231 24.7885 0 23.1827C2.35577 9.74039 13.9712 0 27.6346 0H221.923C237.404 0 249.99 12.5962 249.99 28.0673V571.51C249.99 586.99 237.394 599.577 221.923 599.577H27.6346Z" fill="black"/>
</svg>
