<svg width="1062" height="600" viewBox="0 0 1062 600" fill="none" xmlns="http://www.w3.org/2000/svg">
<path d="M28.0673 599.577C12.5865 599.577 0 586.981 0 571.51V28.0673C0 12.5962 12.5962 0 28.0673 0H1034.1C1047.76 0 1059.38 9.74039 1061.73 23.1827C1061.46 24.7981 1061.32 26.4135 1061.32 27.9904H1057.04V47.6635H1061.32V65.4135H1057.04V85.0865H1061.32V102.837H1057.04V122.51H1061.32V140.26H1057.04V159.933H1061.32V177.683H1057.04V197.356H1061.32V215.106H1057.04V234.779H1061.32V252.529H1057.04V272.202H1061.32V289.952H1057.04V309.625H1061.32V327.375H1057.04V347.048H1061.32V364.798H1057.04V384.471H1061.32V402.221H1057.04V421.894H1061.32V439.644H1057.04V459.317H1061.32V477.067H1057.04V496.74H1061.32V514.49H1057.04V534.164H1061.32V551.914H1057.04V571.587H1061.32C1061.32 573.173 1061.46 574.789 1061.73 576.394C1059.38 589.837 1047.76 599.577 1034.1 599.577H28.0673Z" fill="black"/>
</svg>
